<?xml version="1.0" encoding="utf-8"?>
<!-- Generator: Adobe Illustrator 26.2.1, SVG Export Plug-In . SVG Version: 6.00 Build 0)  -->
<svg version="1.1" id="Layer_1" xmlns="http://www.w3.org/2000/svg" xmlns:xlink="http://www.w3.org/1999/xlink" x="0px" y="0px"
	 viewBox="0 0 2248 2248" style="enable-background:new 0 0 2248 2248;" xml:space="preserve">
<style type="text/css">
	.st0{fill:none;}
	.st1{fill-rule:evenodd;clip-rule:evenodd;fill:#B00C0C;}
	.st2{fill:none;stroke:#000000;stroke-width:10;stroke-linecap:round;}
	.st3{fill:none;stroke:#000000;stroke-width:10;}
	.st4{fill:#B00C0C;stroke:#000000;stroke-width:8;}
</style>
<rect class="st0" width="2248" height="2248"/>
<path class="st1" d="M1500.8,633.7c26.4-11.5,50.9-23.6,72.9-34.5c57.2-28.4,96.8-48.1,108-23.6c11.4,24.9-48.6,53.4-98.8,77.3
	c-18.3,8.7-35.3,16.8-47,23.9c-100.8,60.5-199,102.8-269,132.8c-31.3,13.5-56.9,24.5-74.5,33.6c9.2,10.7,21.4,25,36,42.1l0,0l0,0
	l0,0c40,46.8,97.4,114.2,157.1,182.5c134.2-129,298.5-290.2,359.7-367.2c24.2-30.5,73.4-88.9,166.4-175.9
	c32.2-30.1,61.3-60.3,87.3-87.2c67.9-70.3,115.1-119.1,142-90.3c27.4,29.2-44.4,101.2-104.5,161.4c-21.9,21.9-42.2,42.3-55.7,58.5
	c-114.9,138.7-234.7,250.3-319.9,329.6c-50,46.5-88,82-106.3,105.4c-25.6,32.8-75,78.3-121.8,119.6
	c71.3,79.9,139.6,154.1,179.8,189.9c24.3,21.7,70.8,65.5,139.3,147.1c23.7,28.3,47.6,54,68.9,77l0,0c55.7,60,94.2,101.6,69.1,122.5
	c-25.5,21.2-82.3-42.1-129.9-95.1l0,0l0,0l0,0c-17.3-19.3-33.4-37.2-46.3-49.2c-110.6-102.5-198.3-207.6-260.8-282.4l0,0l0,0
	c-24.8-29.7-45.6-54.6-62.3-72.7c-26,22.6-47.8,41.7-59.7,53.5c-24.8,24.8-71.7,69-122.2,116.6l0,0l0,0l0,0
	c-32.4,30.6-66.4,62.7-97,91.9c130.8,85,333,216.3,414.5,257.3c5.3,2.7,10.8,5.3,16.9,8.2c25.2,12,59.8,28.6,127.7,70.3
	c30.9,19,60.8,36,87,50.9c63,35.8,105.3,59.8,92.4,72.8c-16.2,16.2-94.4-34.3-148-68.8c-7.1-4.6-13.8-8.9-19.9-12.8
	c-49.2-31.3-384.9-222.7-441.5-250.8c-46.2-22.9-122-64-166.8-90.8c-74.2,71.5-260.7,251.1-393.7,376.6
	c-4.2,25.5-9.6,54.9-16.7,88.5c-7.6,36.1-13.2,70.7-18.2,101.7c-13,80.8-21.9,136.9-53.8,129.9c-30.4-6.6-13-82.7,2.6-151
	c7-30.9,13.7-60.1,15.4-80.6c0.7-8.1,1.4-16.2,2.2-24.3c-30.7,28.6-54.4,50.1-67.2,60.9c-27.3,22.9-52.2,45-73.8,64.1l0,0l0,0
	c-49.1,43.4-81.2,71.8-86.2,61.9c-5.1-10.2,0.1-14.9,31.9-44.3c24.5-22.5,64.7-59.6,128.1-124.7c1-1,2.3-2.4,4-4.1l3.9-4l13.5-13.9
	c13-13.4,30.9-31.8,52.5-54c15.7-118,41.2-223.3,60.3-302.2c13.5-55.9,23.9-98.5,25.2-123c2.2-39.7,9.4-102.4,16.5-155.8
	c-57.3-34-125.6-78.1-190.1-120.7c-83.7,37.1-159.9,70.4-184.3,79.4c-21.9,8.1-42.1,16.1-59.7,23.1c-39.8,15.9-65.9,26.2-67,18.8
	c-1.2-7.6,3.1-9.4,29.1-20.4c20-8.5,52.9-22.4,106.2-48.6c2.9-1.4,9.1-4.5,18-8.9h0.1c25.2-12.4,72-35.5,127.9-63
	c-51.2-34.1-98.2-66.1-133.2-89.9c-23.2-15.8-41.1-27.9-51.3-34.7c-34.6-22.8-62.8-39.2-82.9-50.9c-23.5-13.6-36-20.8-34.3-24.4
	c3.3-7.2,102.4,49.2,159.2,83.2c12.9,7.7,87,47.6,180.7,97.9c74.7-36.8,159.5-78.4,228.9-112.3c0.2-0.3,0.4-0.6,0.6-0.9
	c1.1-1.6,2.2-2.8,3.4-3.8c4.7-22.9,9.4-45.6,13.6-66.7c4.1-20.7,46.6-226,83.7-400.3c-77.1-108-156.3-220.9-177.7-255.7
	c-28-45.6-56-78.3-76.9-102.8c-26.8-31.4-42.1-49.2-31.1-63.2c7-8.9,57.8,50.8,102,102.7c11.4,13.4,22.4,26.3,32,37.3
	c12.4,14.2,83.2,106.3,166.2,214.3c17.5-81.1,32.2-147.4,38.8-171.7c11.7-43.5,17.4-78,21.5-102.6c4.8-28.8,7.3-43.9,14.4-43.9
	c14.3,0-4.1,120.7-17.5,190.6c-2.5,13.4-14.6,77-30.7,162.2c97,126.3,203.6,264.7,250.9,323.1 M574.3,1118.5
	c11.6,6.2,23.4,12.5,35.3,18.9c39.1,20.9,79.6,42.7,119.1,63.9c1.8-12,3.5-22.1,4.8-29.5c5.1-28.7,15.9-80.8,27.6-137.2
	C716.2,1055,645.3,1086.9,574.3,1118.5z M771.4,1224.3c-0.1-0.1-0.3-0.1-0.4-0.2c11.3-62.1,20.8-112.9,25.9-140.2l0,0l0,0
	c1.1-5.7,1.9-10.4,2.6-13.9c0.4-2.2,0.9-4.8,1.4-7.7c12.9,19.3,22.8,28.6,28.4,33.2c8.3,6.8,20.2,21.5,32.9,39
	c-31.6,31.3-64.3,63.7-77,76.3l-0.6,0.6l-1.8,1.8c-1.2,1.2-2.1,2.1-2.6,2.6C777.2,1218.9,774.2,1221.7,771.4,1224.3z M786.8,1232.6
	c-1.1-0.6-2.1-1.1-3.2-1.7c1.5-1,3-2,4.5-3.1c11.6-7.8,53.4-43.5,88.3-73.6c11.3,16.3,22.4,33.3,31.8,47.7
	C859.7,1214.1,808.1,1227.1,786.8,1232.6z M815.5,1248.1c31.2-4.7,75.4-12.2,110.7-18.4c2.1,3.2,3.7,5.7,4.8,7.2
	c9.1,13.1,65.2,86.7,99.4,131.3c-14.2-9.1-25-15.9-31.3-19.7C977.3,1335.6,904.6,1296.1,815.5,1248.1z M760.7,1281.8
	c28.7,16,52.8,27.9,69.4,33.7c27.3,9.5,120.8,62.2,193.2,109c-104.8,107.2-235.2,241.1-333.7,342.3c2.1-18.9,3.3-33.8,4-44.9
	C698.9,1638.4,732.4,1439.5,760.7,1281.8z M878.2,1098.4L878.2,1098.4L878.2,1098.4c2.9,4.6,5.5,8.9,7.8,12.6
	c22.7-22.4,41.7-41,47.6-46.3c2.6-2.4,8.4-7.3,16.1-13.8l0,0l0,0l1-0.8c-48-7.9-102.4-17.2-116.5-21.5c-3.4-1-6.6-1.9-9.8-2.8
	C848.4,1049.8,865.6,1077.9,878.2,1098.4L878.2,1098.4L878.2,1098.4z M983.5,1062.1c1.6-1.4,4-3.4,7-5.6c12.3,2,22.7,3.6,29.8,4.7
	l0,0l0,0c5,0.8,8.4,1.3,9.6,1.5c11.3,1.9,24.1,4.2,36.3,6.4l0,0c11.9,2.2,23.3,4.2,32,5.6c-0.7,4.3-1.2,7.2-1.3,8.4
	c-1.9,11.3-4.2,24.1-6.5,36.3c-3.2,17.6-6.2,34-7.3,42.7c-0.1,0.7-0.2,1.6-0.4,2.5c-18.2,3.2-35,6-48.1,8.1l0,0h-0.1
	c-11.3,1.9-19.7,3.2-23.5,4c-8.7,1.8-36.8,8.6-70.7,17c-2.1-3.1-3.9-5.8-5.4-7.9c-2.2-3.1-5.6-9.5-9.6-17l0,0
	c-6.6-12.6-15-28.4-22.7-37.7c7.2-6.3,13.3-11.6,17.7-15.4l0.1-0.1l0,0l0.1-0.1l0.1-0.1c3.4-3,5.7-5,6.5-5.7
	c8-6.9,17.1-14.6,25.9-21.9l0,0l0,0C965.9,1077.4,977.6,1067.6,983.5,1062.1z M1091,1036.2c4.1,0.7,8.5,1.5,13.2,2.3
	c4.7-28.8,10.9-66.4,16.5-97.3c-19,21-39.6,37.8-55.4,50.8c-12.6,10.3-22.2,18.1-25.6,23.7c-2.4,3.9-6.7,8.3-11.9,12.8
	c19.7,1.8,34.6,3.3,40.4,4.1C1072,1032.9,1080.1,1034.3,1091,1036.2z M1127.2,1121.4c0.8-5.9,2.4-21.4,4.3-41.8
	c19.1,3.1,43.8,7.6,55.7,11.2c6.7,2.1,14,5.6,22.3,9.5c12.9,6.2,28,13.4,47,18c-26.2,4.9-40.2,11.2-47.5,15.1
	c-15.3,8.2-50.9,16.7-87.9,24c0.8-4.8,1.6-9.2,2.3-13.3l0,0l0,0C1125.3,1133.3,1126.7,1125.2,1127.2,1121.4z M1261.8,1055.3
	c6.1-1,16.4-2,32.6-0.7c-16.3-20.2-32.5-40.9-46.9-59.3l0,0l0,0l0,0l0,0c-18.4-23.5-33.9-43.5-43.5-54.2
	c-10.1-11.3-24.4-27.8-40.9-47.3c-3.2,3.4-6.8,6.8-10.2,10c-2.1,2-4.2,4-6.1,5.8c-2.6,29.5-7.6,86.2-11.9,133.8
	C1181.8,1051.1,1239.2,1058.9,1261.8,1055.3z M844.7,1012.4c21.9,1.9,83.1,7,136.2,11.7c33-28.6,72.6-64.5,84.3-82.6
	c4.7-7.2,14.8-20.8,38.1-40.1c8.1-6.7,14.9-13.5,20.9-19.6l0,0c2.2-2.2,4.2-4.2,6.2-6.2c-27.5,12.3-59.1,24.6-85.7,34.9l0,0l0,0l0,0
	l0,0l0,0l0,0l0,0c-21.8,8.5-40.2,15.6-50.3,20.4c-20.7,9.8-59.2,26.7-100.8,44.9l0,0l0,0l0,0c-25.5,11.2-52.1,22.8-76.4,33.6
	c5.8,0.8,12.3,1.5,19.9,2.2C838.3,1011.8,840.9,1012.1,844.7,1012.4z M1072.6,1204.9c-3.2,13.7-5.6,27.2-4.1,35.3
	c1.2,6.8-1.4,20-4.8,37.4c-4.8,24-11,56-10.9,89.7c-22.6-36.1-60.6-93.6-74.2-114.1v-0.1l-0.1-0.1c-2.4-3.7-4.1-6.2-4.7-7.1
	c-4.5-6.9-9.4-14.6-14.2-22.2c5.6-1,10.4-1.9,14.3-2.6c2.1-0.4,3.9-0.7,5.4-0.9c2.2-0.4,3.8-0.7,4.6-0.8c11.8-2,25.1-4.1,37.8-6.1
	l0,0l0,0l0,0l0,0l0,0c18.4-2.9,35.4-5.5,44.3-7.5C1067.7,1205.6,1069.9,1205.2,1072.6,1204.9z M1113.8,1201.4
	c13.8-1.5,26.8-3.8,33.9-7.8c6.2-3.5,20.1-5.5,38.3-8.1l0,0c27.6-3.9,65.1-9.2,101-23.5c-8.9,8.5-17.3,16.5-25.3,24.1l0,0l0,0
	c-31.1,29.6-54.3,51.7-65.1,62.3c-14.2,13.9-47.4,47.6-91.7,92.8c0.7-12.6-0.2-21-1-26.2C1100.6,1294.5,1106.9,1245.4,1113.8,1201.4
	z M1108.8,829.8c-24.9-29.5-50.9-60.2-74.3-87.4c-10-11.6-70.1-94.1-137.6-188.4c-25.6,135.5-56.6,299.7-76.9,407.9
	c40-19.5,70-34,82.4-39.7c9-4.2,28.1-12.6,53.8-24l0,0C995.7,880.6,1051,856.1,1108.8,829.8z"/>
<path class="st2" d="M760,416.7 M769.5,581.8 M911,486 M891.5,431.7"/>
<path class="st3" d="M513,1108.2"/>
<path class="st2" d="M667.5,1522.2"/>
<path class="st2" d="M1001.5,645.6 M1289,1166.7 M1512.9,773.8"/>
<path class="st2" d="M913.5,567.6 M1112.5,492.7 M974.5,588.2 M1106.5,702.8 M1054,626.9 M1407.3,779.7 M1309.4,790.9 M1407.3,779.7
	 M1488.3,733.6 M1407.3,779.7"/>
<path class="st2" d="M1130.5,1619.7"/>
<path class="st2" d="M1288.5,1185.7"/>
<path class="st2" d="M1602.5,1139.7"/>
<path class="st2" d="M1664.5,1069.7"/>
<path class="st2" d="M1664.5,1491.7"/>
<path class="st2" d="M1052.5,1805.7 M1091.5,1674.2 M1215.5,1487.7 M758.5,1674.2 M795.5,1567.2 M706.5,1467.7 M1515.5,1297.7
	 M1400.5,1385.7 M1627,1277.7 M748,398.2"/>
<path class="st2" d="M638.5,359.7 M673,338.7 M704.5,349.7 M743.5,437.7 M748,533.7 M1181.5,846.7 M1142,826.7 M1080.5,780.7
	 M1091.5,1674.2 M1166.5,1511.7 M1212,1173.2 M1240,1167.7"/>
<path class="st4" d="M859,1718.9"/>
<path class="st2" d="M836.1,1737.3"/>
<path class="st2" d="M952.5,1576.7"/>
<path class="st4" d="M1106.1,616.8"/>
</svg>
