<?xml version="1.0" encoding="UTF-8"?><svg id="a" xmlns="http://www.w3.org/2000/svg" viewBox="0 0 30 21.96"><defs><style>.b{fill:#ebf6fb;}</style></defs><path class="b" d="M28.12,0H1.88c-.5,0-.97,.2-1.33,.57-.35,.36-.55,.86-.55,1.37V20.02c0,.51,.2,1.01,.55,1.37,.35,.36,.83,.57,1.33,.57H28.12c.5,0,.97-.2,1.33-.57,.35-.36,.55-.86,.55-1.37V1.94c0-.51-.2-1.01-.55-1.37-.35-.36-.83-.57-1.33-.57Zm-.4,1.29L15,11.46,2.28,1.29H27.73ZM1.25,19.76V2.11l9.63,7.69L1.25,19.76Zm.88,.91L11.88,10.6l2.74,2.19c.11,.09,.24,.13,.38,.13s.27-.05,.38-.13l2.75-2.19,9.74,10.07H2.13Zm26.62-.91l-9.63-9.96L28.75,2.11V19.76Z"/></svg>