<?xml version="1.0" encoding="utf-8"?>
<!-- Generator: Adobe Illustrator 26.2.1, SVG Export Plug-In . SVG Version: 6.00 Build 0)  -->
<svg version="1.1" xmlns="http://www.w3.org/2000/svg" xmlns:xlink="http://www.w3.org/1999/xlink" width="200px" height="200px"
	 viewBox="0 0 2248 2248" style="enable-background:new 0 0 2248 2248;" xml:space="preserve">
<style type="text/css">
	.st0{fill-rule:evenodd;clip-rule:evenodd;fill:#B00C0C;}
	.st1{fill-rule:evenodd;clip-rule:evenodd;fill:#06E1F7;}
	.st2{fill-rule:evenodd;clip-rule:evenodd;fill:#00E729;}
	.st3{fill:#FFFA73;stroke:url(#SVGID_1_);stroke-miterlimit:10;}
	.st4{fill:none;}
	.st5{fill-rule:evenodd;clip-rule:evenodd;fill:none;}
	.st6{fill-rule:evenodd;clip-rule:evenodd;fill:#FFFFFF;}
	.st7{fill:none;stroke:#000000;stroke-width:10;stroke-linecap:round;}
	.st8{fill:none;stroke:#000000;stroke-width:10;}
	.st9{fill:#B00C0C;stroke:#000000;stroke-width:8;}
	.st10{fill-rule:evenodd;clip-rule:evenodd;fill-opacity:0.26;}
</style>
<g id="Layer_1">
	<path class="st0" d="M869,516.2L691.3,260.5c0,0-56-78.3-76.9-102.8c-26.8-31.4-42.1-49.2-31.1-63.2c7-8.9,57.8,50.8,102,102.7
		c11.4,13.4,22.4,26.3,32,37.3c12.4,14.2,166.2,214.3,166.2,214.3c17.5-81.1,32.2-147.4,38.8-171.7c11.7-43.5,17.4-78,21.5-102.6
		c4.8-28.8,7.3-43.9,14.4-43.9c14.3,0-4.1,120.7-17.5,190.6c-2.5,13.4-14.6,77-30.7,162.2c0,0,203.6,264.7,250.9,323.1
		c82-38,160.9-76.4,199.1-100.4c21.5-13.5,64.4-38.8,140.8-71.9c26.4-11.5,50.9-23.6,72.9-34.5c57.2-28.4,96.8-48.1,108-23.6
		c11.4,24.9-48.6,53.4-98.8,77.3c-18.3,8.7-35.3,16.8-47,23.9c-100.8,60.5-199,102.8-269,132.8c-31.3,13.5-56.9,24.5-74.5,33.6
		c9.2,10.7,21.4,25,36,42.1c40,46.8,97.4,114.2,157.1,182.5c134.2-129,298.5-290.2,359.7-367.2c24.2-30.5,73.4-88.9,166.4-175.9
		c32.2-30.1,61.3-60.3,87.3-87.2c67.9-70.3,115.1-119.1,142-90.3c27.4,29.2-44.4,101.2-104.5,161.4c-21.9,21.9-42.2,42.3-55.7,58.5
		c-114.9,138.7-234.7,250.3-319.9,329.6c-50,46.5-88,82-106.3,105.4c-25.6,32.8-75,78.3-121.8,119.6
		c71.3,79.9,139.6,154.1,179.8,189.9c24.3,21.7,70.8,65.5,139.3,147.1c23.7,28.3,47.6,54,68.9,77c55.7,60,94.2,101.6,69.1,122.5
		c-25.5,21.2-82.3-42.1-129.9-95.1c-17.3-19.3-33.4-37.2-46.3-49.2c-110.6-102.5-198.3-207.6-260.8-282.4
		c-24.8-29.7-45.6-54.6-62.3-72.7c-26,22.6-47.8,41.7-59.7,53.5c-24.8,24.8-71.7,69-122.2,116.6c-32.4,30.6-66.4,62.7-97,91.9
		c130.8,85,333,216.3,414.5,257.3c5.3,2.7,10.8,5.3,16.9,8.2c25.2,12,59.8,28.6,127.7,70.3c30.9,19,60.8,36,87,50.9
		c63,35.8,105.3,59.8,92.4,72.8c-16.2,16.2-94.4-34.3-148-68.8c-7.1-4.6-13.8-8.9-19.9-12.8c-49.2-31.3-384.9-222.7-441.5-250.8
		c-46.2-22.9-122-64-166.8-90.8c-74.2,71.5-260.7,251.1-393.7,376.6c-4.2,25.5-9.6,54.9-16.7,88.5c-7.6,36.1-13.2,70.7-18.2,101.7
		c-13,80.8-21.9,136.9-53.8,129.9c-30.4-6.6-13-82.7,2.6-151c7-30.9,13.7-60.1,15.4-80.6c0.7-8.1,1.4-16.2,2.2-24.3
		c-30.7,28.6-54.4,50.1-67.2,60.9c-27.3,22.9-52.2,45-73.8,64.1c-49.1,43.4-81.2,71.8-86.2,61.9c-5.1-10.2,0.1-14.9,31.9-44.3
		c24.5-22.5,64.7-59.6,128.1-124.7c1-1,2.3-2.4,4-4.1l3.9-4l13.5-13.9c13-13.4,30.9-31.8,52.5-54c15.7-118,41.2-223.3,60.3-302.2
		c13.5-55.9,23.9-98.5,25.2-123c2.2-39.7,9.4-102.4,16.5-155.8c-57.3-34-125.6-78.1-190.1-120.7c-83.7,37.1-159.9,70.4-184.3,79.4
		c-21.9,8.1-42.1,16.1-59.7,23.1c-39.8,15.9-65.9,26.2-67,18.8c-1.2-7.6,3.1-9.4,29.1-20.4c20-8.5,52.9-22.4,106.2-48.6
		c2.9-1.4,9.1-4.5,18-8.9h0.1c25.2-12.4,72-35.5,127.9-63c-51.2-34.1-98.2-66.1-133.2-89.9c-23.2-15.8-41.1-27.9-51.3-34.7
		c-34.6-22.8-62.8-39.2-82.9-50.9c-23.5-13.6-36-20.8-34.3-24.4c3.3-7.2,102.4,49.2,159.2,83.2c12.9,7.7,87,47.6,180.7,97.9
		c74.7-36.8,159.5-78.4,228.9-112.3c0.2-0.3,0.4-0.6,0.6-0.9c1.1-1.6,2.2-2.8,3.4-3.8c4.7-22.9,9.4-45.6,13.6-66.7
		C789.4,895.8,869,516.2,869,516.2 M574.3,1118.5c11.6,6.2,23.4,12.5,35.3,18.9c39.1,20.9,79.6,42.7,119.1,63.9
		c1.8-12,3.5-22.1,4.8-29.5c5.1-28.7,15.9-80.8,27.6-137.2C716.2,1055,645.3,1086.9,574.3,1118.5z M771.4,1224.3
		c-0.1-0.1-0.3-0.1-0.4-0.2c11.3-62.1,20.8-112.9,25.9-140.2l0,0l0,0c1.1-5.7,1.9-10.4,2.6-13.9c0.4-2.2,0.9-4.8,1.4-7.7
		c12.9,19.3,22.8,28.6,28.4,33.2c8.3,6.8,20.2,21.5,32.9,39c-31.6,31.3-64.3,63.7-77,76.3l-0.6,0.6l-1.8,1.8
		c-1.2,1.2-2.1,2.1-2.6,2.6C777.2,1218.9,774.2,1221.7,771.4,1224.3z M786.8,1232.6c-1.1-0.6-2.1-1.1-3.2-1.7c1.5-1,3-2,4.5-3.1
		c11.6-7.8,53.4-43.5,88.3-73.6c11.3,16.3,22.4,33.3,31.8,47.7C859.7,1214.1,808.1,1227.1,786.8,1232.6z M815.5,1248.1
		c31.2-4.7,75.4-12.2,110.7-18.4c2.1,3.2,3.7,5.7,4.8,7.2c9.1,13.1,65.2,86.7,99.4,131.3c-14.2-9.1-25-15.9-31.3-19.7
		C977.3,1335.6,904.6,1296.1,815.5,1248.1z M760.7,1281.8c28.7,16,52.8,27.9,69.4,33.7c27.3,9.5,120.8,62.2,193.2,109
		c-104.8,107.2-235.2,241.1-333.7,342.3c2.1-18.9,3.3-33.8,4-44.9C698.9,1638.4,732.4,1439.5,760.7,1281.8z M878.2,1098.4
		L878.2,1098.4L878.2,1098.4c2.9,4.6,5.5,8.9,7.8,12.6c22.7-22.4,41.7-41,47.6-46.3c2.6-2.4,8.4-7.3,16.1-13.8l0,0l0,0l1-0.8
		c-48-7.9-102.4-17.2-116.5-21.5c-3.4-1-6.6-1.9-9.8-2.8C848.4,1049.8,865.6,1077.9,878.2,1098.4L878.2,1098.4L878.2,1098.4z
		 M983.5,1062.1c1.6-1.4,4-3.4,7-5.6c12.3,2,22.7,3.6,29.8,4.7l0,0l0,0c5,0.8,8.4,1.3,9.6,1.5c11.3,1.9,24.1,4.2,36.3,6.4l0,0
		c11.9,2.2,23.3,4.2,32,5.6c-0.7,4.3-1.2,7.2-1.3,8.4c-1.9,11.3-4.2,24.1-6.5,36.3c-3.2,17.6-6.2,34-7.3,42.7
		c-0.1,0.7-0.2,1.6-0.4,2.5c-18.2,3.2-35,6-48.1,8.1l0,0h-0.1c-11.3,1.9-19.7,3.2-23.5,4c-8.7,1.8-36.8,8.6-70.7,17
		c-2.1-3.1-3.9-5.8-5.4-7.9c-2.2-3.1-5.6-9.5-9.6-17l0,0c-6.6-12.6-15-28.4-22.7-37.7c7.2-6.3,13.3-11.6,17.7-15.4l0.1-0.1l0,0
		l0.1-0.1l0.1-0.1c3.4-3,5.7-5,6.5-5.7c8-6.9,17.1-14.6,25.9-21.9l0,0l0,0C965.9,1077.4,977.6,1067.6,983.5,1062.1z M1091,1036.2
		c4.1,0.7,8.5,1.5,13.2,2.3c4.7-28.8,10.9-66.4,16.5-97.3c-19,21-39.6,37.8-55.4,50.8c-12.6,10.3-22.2,18.1-25.6,23.7
		c-2.4,3.9-6.7,8.3-11.9,12.8c19.7,1.8,34.6,3.3,40.4,4.1C1072,1032.9,1080.1,1034.3,1091,1036.2z M1127.2,1121.4
		c0.8-5.9,2.4-21.4,4.3-41.8c19.1,3.1,43.8,7.6,55.7,11.2c6.7,2.1,14,5.6,22.3,9.5c12.9,6.2,28,13.4,47,18
		c-26.2,4.9-40.2,11.2-47.5,15.1c-15.3,8.2-50.9,16.7-87.9,24c0.8-4.8,1.6-9.2,2.3-13.3l0,0l0,0
		C1125.3,1133.3,1126.7,1125.2,1127.2,1121.4z M1261.8,1055.3c6.1-1,16.4-2,32.6-0.7c-16.3-20.2-32.5-40.9-46.9-59.3l0,0l0,0l0,0
		l0,0c-18.4-23.5-33.9-43.5-43.5-54.2c-10.1-11.3-24.4-27.8-40.9-47.3c-3.2,3.4-6.8,6.8-10.2,10c-2.1,2-4.2,4-6.1,5.8
		c-2.6,29.5-7.6,86.2-11.9,133.8C1181.8,1051.1,1239.2,1058.9,1261.8,1055.3z M844.7,1012.4c21.9,1.9,83.1,7,136.2,11.7
		c33-28.6,72.6-64.5,84.3-82.6c4.7-7.2,14.8-20.8,38.1-40.1c8.1-6.7,14.9-13.5,20.9-19.6l0,0c2.2-2.2,4.2-4.2,6.2-6.2
		c-27.5,12.3-59.1,24.6-85.7,34.9l0,0l0,0l0,0l0,0l0,0l0,0l0,0c-21.8,8.5-40.2,15.6-50.3,20.4c-20.7,9.8-59.2,26.7-100.8,44.9l0,0
		l0,0l0,0c-25.5,11.2-52.1,22.8-76.4,33.6c5.8,0.8,12.3,1.5,19.9,2.2C838.3,1011.8,840.9,1012.1,844.7,1012.4z M1072.6,1204.9
		c-3.2,13.7-5.6,27.2-4.1,35.3c1.2,6.8-1.4,20-4.8,37.4c-4.8,24-11,56-10.9,89.7c-22.6-36.1-60.6-93.6-74.2-114.1v-0.1l-0.1-0.1
		c-2.4-3.7-4.1-6.2-4.7-7.1c-4.5-6.9-9.4-14.6-14.2-22.2c5.6-1,10.4-1.9,14.3-2.6c2.1-0.4,3.9-0.7,5.4-0.9c2.2-0.4,3.8-0.7,4.6-0.8
		c11.8-2,25.1-4.1,37.8-6.1l0,0l0,0l0,0l0,0l0,0c18.4-2.9,35.4-5.5,44.3-7.5C1067.7,1205.6,1069.9,1205.2,1072.6,1204.9z
		 M1113.8,1201.4c13.8-1.5,26.8-3.8,33.9-7.8c6.2-3.5,20.1-5.5,38.3-8.1l0,0c27.6-3.9,65.1-9.2,101-23.5
		c-8.9,8.5-17.3,16.5-25.3,24.1l0,0l0,0c-31.1,29.6-54.3,51.7-65.1,62.3c-14.2,13.9-47.4,47.6-91.7,92.8c0.7-12.6-0.2-21-1-26.2
		C1100.6,1294.5,1106.9,1245.4,1113.8,1201.4z M896.9,554c-25.6,135.5-56.6,299.7-76.9,407.9c40-19.5,70-34,82.4-39.7
		c9-4.2,28.1-12.6,53.8-24l0,0c39.5-17.6,94.8-42.1,152.6-68.4c-24.9-29.5-50.9-60.2-74.3-87.4C1024.5,730.8,964.4,648.3,896.9,554"
		/>
	<path class="st1" d="M192.7,919.2c323.9,113.8,544.5,262.3,689.4,381.7c24.5,20.2,18.3,16.1,72.8,62.6
		c449.7,382.5,606.8,445.7,676.7,470.2c45.5,16,114.9,36.9,204.2,50.3"/>
	<path class="st2" d="M581.9,2145.8c68.2-225.8,126.5-486.5,156.8-778.1c9.1-87.9,15.1-173.1,18.5-255.3c0.8-9.3,2.1-24.9,3.9-44.3
		c12.5-138.6,25.1-245,27.1-261c13.5-109.5,64.8-336.2,147.2-624.1"/>
	<linearGradient id="SVGID_1_" gradientUnits="userSpaceOnUse" x1="603.5" y1="922.6711" x2="1920.4393" y2="922.6711">
		<stop  offset="0" style="stop-color:#FFFFFF"/>
		<stop  offset="1" style="stop-color:#000000"/>
	</linearGradient>
	<path class="st3" d="M1128.1,750.9c197.8,170.8,180,285,469.6,572.9c361.1,358.9,330.3,390.2,313.2,381
		c-15.2-8.2-14.2,52.4-361.9-462.8c-115.3-170.8-168.1-200.3-415.7-418.3C997.2,703.8,642.5,220,604.4,140.6
		C589.5,109.6,1025.6,662.4,1128.1,750.9z"/>
	<rect class="st4" width="2248" height="2248"/>
	<path class="st5" d="M1654.6,1820.7"/>
	<path id="_x3C_Slice_x3E_" class="st5" d="M198,2155V93h1949v2062C1605.9,1379.7,1068.5,617,1054,626.9
		c-3.2,2.2,16.2,45.2,52.5,75.9c3.1,2.6,54.7,45.3,91.9,30.4c17.6-7.1,26-20.8,26-20.8c5-8.1,5.9-15.8,6.4-18.7
		c4.9-31.7,34.9-66.4,34.8-66.5C1265.3,626.8,727,1397.4,198,2155z"/>
	<path class="st6" d="M358.5,997.7c-30-39-58.9-163.1-52-202c3.8-21.7,12.8-49.2,21.6-76.1c16.3-50.1,32-98,12.4-101.9
		c-30-6-81,84-88,185c-5.9,85.2,18.2,166,38.1,232.6c7,23.3,13.4,44.9,17.9,64.4c35.8,156,84.5,211.5,152,247
		c24.2,12.7,30.9,50.7,37.2,85.7c5,27.8,9.6,53.7,22.3,63.3c63,47.5,106.5,65.5,139,47.5c5.9,7.6,17.8,13.1,33,20.2
		c16,7.4,35.5,16.5,55.5,31.3c24.4,18.2,16.4,59.1,12.3,80.3l0,0v0.1c-0.1,0.5-0.2,1-0.3,1.5l-69,13c77.5,130,185.5,174.3,255,196
		c64,20,235.2,38.4,391.5-17c146.3-51.8,251.5-196,281.5-258c25-51.6,65.7-157.7,74-267.5c10.5-138.8-17.8-275.1-34-286.5
		c-32-22.5-48.5-7-59.5,35.5c-5.5,21.1,2.5,49,9.1,71.9c2.8,9.8,5.3,18.6,6.4,25.6c-45.6,21.6-87.2,88.5-103.3,114.3
		c-3.7,5.9-6,9.6-6.7,10.2c-12.3,9.6-28.3,18.5-44.4,27.4c-22.6,12.5-45.4,25.2-58.6,40.1c-5.2-12-10.5-25.8-15.6-38.8
		c-5.8-14.8-11.1-28.6-15.4-37.7c-7.6-16.2-19.6-29-28.5-38.4c-4.4-4.7-8-8.5-10-11.6c6.1-11.5,11.9-25.5,18.4-40.9
		c20.3-48.4,46.8-111.4,104.1-158.6c51.7-42.5,135.8-99.6,211.9-151.1l0,0l0,0c77.8-52.7,147.2-99.7,165-119.9
		c24-27,75.1-106.9,65.5-205c-8.1-83.6-84.8-186.5-126.5-210c-61-34.4-77,15-46,51c2.8,3.2,5.9,6.8,9.2,10.6
		c33.9,38.4,92.3,104.6,92.3,185.4c0,53-28,93.5-63.5,116c-15.3-88-38-188-141-288c-171-166-397-54-504.5,48.5
		c-32.5,0-89.4,22.9-110.2,31.7c-20.8,8.8-71.2,76.4-81.7,90.9c-10-47-2.2-217.4-2.2-217.4s35.7-30.1,29.2-64.6
		c-4.6-24.3-16.9-18.9-48.6,0.7c-19.8,12.2-38.9,140.9-44,168.3c-4.7,25.2-9.2,49.7-24.8,60C822,570.8,804,574.1,788,577
		c-6.4,1.2-12.4,2.3-17.6,3.6c-3.3-13.3,1-51,10.5-89c12.3-49.1,15.5-72.5-19.5-75.5c-6-15.5-16.5-25.5-21.5-25.5
		c-12,0-22.2,6.4-34.1,13.8c-9.5,5.9-20,12.5-33.4,17.2c-19.6,6.8-26.4,17.8-32.7,28.1c-3.1,5-6,9.8-10.3,13.9
		c-7,6.7-18.7,13.8-30.8,21.1c-13.1,7.9-26.7,16.1-35.2,24.4l33.5,14.5l-33.5,45.5l33.5,6.5l28.5-6.5c-3,41.5-15,117.5-62,198.5
		c-15.6,26.9-49.1,57.9-85.2,91.1l0,0l0,0C431.1,902.4,379.5,950,358.5,997.7z M1410.8,932.7c-8.2,11.8-18.3,26.2-20.8,32.5
		c-1.4,3.5-4.8,11.8-9,21.7c-9.3,22.2-22.1,52.9-23.5,58.8c-1.6,6.8-44.3,81.8-65.5,118.5c-3.5-13.7-11.7-42.6-16.5-49
		c-1.2-1.6-2.7-3.8-4.4-6.4c-7.1-10.6-18.3-27.1-27.6-29.1c-11.5-2.5-36,1.5-45,15.5s-27.5,45.5-11.5,93.5s47,111,56.5,122
		s29.5,40,36,61s20.5,88,15,124s-21.1,79.7-65.5,101c-37.5,18-66,20.5-92.5,22c10.5-17,40.4-46.6,47-53c0.4-0.4-18.9-15-18.5-15.4
		c16.1-15.5,33.5-68.1,30-91.5c-2.3-16-12.3-35-30.3-28c-32.5,12.6-92.2,139.9-104.2,153.4c-9.6,10.8-35,42.8-46.5,57.5
		c-4.2-10.8-15.1-35-25.5-45c-18.3-17.6-40.8-22.8-72.2-30c-7.2-1.7-15-3.4-23.2-5.5c-30.6-7.6-71.3-34.7-89.5-47l-7.5,23.5l2,26
		c-20.8-13-60.5-43.1-67.5-48.5c-13.6-10.4-18.9-33.9-23.1-52.3c-1.8-8.1-3.4-15.1-5.4-19.7c-3.4-7.8-17-33-51-13.5
		c-19.1,11-21.5,30-21.5,38.5c-21.5,0-60.8-2.9-67-19c-5.2-13.5,1.9-38.3,8.3-61c2.9-10.2,5.7-19.9,7.2-28
		c16.5,25,50.1,46.6,75,34.5c29.4-14.3,12.9-56.9,0.3-89.4c-3.7-9.6-7.1-18.3-8.8-25.1c-5.2-20.3-6.6-42.6-7.8-63.7
		c-2-33.5-3.8-63.8-20.7-77.3c-16.8-13.4-49.2-20.3-76.6-26.2c-8.5-1.8-16.5-3.5-23.4-5.3c20.2-28.8,81.2-78.1,125.6-114
		c22.6-18.3,40.9-33.1,47.4-40c4.7-5,9.4-9.9,13.8-14.5c42.7-44.6,74.4-77.7,109.7-189c18.5-7.5,52.9-9.9,77,5
		c29,18,58.6,22.2,74.5,5c6.5-7,6-43.5-46-65c-19.3-8-40.6-8.9-54.5-9.6c-5.2-0.2-9.4-0.4-12-0.9l47.5-56c0.7,0.2,1.4,0.3,2.2,0.5
		c14.5,3.3,43.9,55.6,70.8,33c5.9-5,23.3-47.5,27.3-53.2c1.1-1.5,10.8-18.7,12.5-20.9c0,0,5.5-8.9,11-14c12.2-11.4,22-14,27.8-12.4
		c2,0.5,3.2,0.8,3.5,0.5l-29,38.5l-22.5,46.5c1.9,0.6,3.9,1.2,6,1.9c11.8,3.7,25.2,7.9,38,9.6c14.7,2,22.5,3,28.5,1.5
		c2.5,3.3,5.4,7.5,8.6,12.1c8.5,12.1,18.4,26.4,24.4,30.4c11,7.5,71.7,45.1,100,27c19.9-12.7,24.4-35.2,28.1-54
		c1.7-8.5,3.2-16.3,5.9-22c7-14.5,20.5-23.5,26.5-25c1.8,7.5,3.8,16.6,6.2,26.7c10,43.7,24,104.7,30.8,121.3
		c7.6,18.4,26.7,37.9,37.3,48.8c0.6,0.6,1.1,1.1,1.6,1.6c0.6,0.6,1.1,1.1,1.6,1.6c-61.2,17.5-188.2,55.4-207,67
		c-2.8,1.7-6.8,4-11.8,6.8c-36.3,20.4-118.9,66.8-74.2,104.2c27.4,23,58.9,1.2,97-25.2c21.6-14.9,45.3-31.3,71.5-41.8
		c51.3-20.5,139.2-20.5,197.7-20.5h0.8C1418,922.4,1414.6,927.2,1410.8,932.7z M1609,1469.7c20.1-32.2,26-139.3,22-191
		c-25.5,18-48.5,51-64,87c-12.1,28-31,111-28,154.5C1553.5,1517.2,1583.5,1510.7,1609,1469.7z M1408.5,777.7
		c-8-4.7-25.7-15.5-32.5-21.5c-8.5-7.5-16.5-17.5-22.5-47.5c-4.8-24-10.3-73-12.5-94.5c21-3,51,4.1,70.5,15.5c24,14,48,47,80,99.5
		l-44,20.5L1408.5,777.7z"/>
	<path class="st7" d="M769.5,581.8c-9.5-91.6,56.9-165.1-9.5-165.1c-3-15-19.7-34-40-19.5c-33.5,24-72,25-87.5,56.5
		c-12.5,25.5-39,31.5-71.5,56c11.5,11.5,28.5,14.5,37.2,13.5 M620.5,503.7c-26.5,18.5-46.5,49-57,66c20.9,12.3,64.8,10,81-15.5
		 M624.5,570.8c-22,273.9-201.5,279.3-269,427.9c-24-39.3-50-119.2-50-185c0-85.5,73-184,28.5-194c-38.2-8.6-87,117.5-83.5,200
		c6.5,153.9,43,216.5,55.5,269.5c9.8,41.5,27.5,141.5,83,201c47.4,50.8,84,53.5,98,91c8.8,23.4,4,89,29,112
		c22.6,20.8,94.3,66.4,124,59c32-8,40-55,8-74s-94.5-0.5-88.5-43.5c5.7-40.6,31-98,11-150S491,1176,507,1120.7
		c19.5-67.5,240.9-156.1,292.5-339C830,673.7,905.2,651.5,917,607c10.5-39.5-12.9-178.6,17.1-219.1 M663.5,662.2
		c42-101.5,166-71.5,185-114c15.3-34.2,17.9-199.4,61.1-217.9c35-15,48-5.3,40,27.7c-7,29-29.8,44-36.1,44.6 M809.3,752.7
		c22.3-11.5,54.3-11,91.3,9c28.5,15.4,64,16,64-9c0-39-46-71-116-67"/>
	<path class="st8" d="M513,1108.2c88,17,123.7,24.2,120.5,100.5c-3.9,95,60.5,161.1,22,183c-39.5,22.5-72.5-20.7-79.5-32"/>
	<path class="st7" d="M619,1518.2c13,0,34.5,2,33,28"/>
	<path class="st7" d="M627.5,1492.7c13,0,39,1.5,40,29.5"/>
	<path class="st7" d="M1071.4,661.5c-41.3-1.3-69.9-15.9-69.9-15.9c7.3-18.1,52.5-107.8,139-173.9c188.9-144.3,344.8-129.1,446-54
		c124.8,92.7,150.9,197.8,173,318.9c54.9-28.9,82-93.6,54.9-178.2c-25.6-80.1-133.6-155.6-103.9-190.7c49-58,187.2,137,184,232
		c-7.4,217.9-150.5,237.2-289,343.8c-126.8,97.6-174.4,97-233.8,219.3c-14.8,30.4-27.6,64.3-41.4,92.9 M1340.1,615.5
		c96.4-8.3,124.9,80.6,172.8,158.3c39.5,64.1-48.9,80.5-106,161.7c-45.4,64.5-29.3,93.6-117.9,231.2"/>
	<path class="st7" d="M1112.5,492.7 M1049.5,562.2c-27.1-8.2-56.9,58.4-68.8,86.4c-3.9,9.1-15.8,19.1-25.4,21.6
		c-11.9,3.2-26.6-3.1-29.4-15c-2.9-12.4-12.7-34.3,17.1-70.5c29.4-35.7,112.1-113,170.3-93.8 M1239.8,544.3
		c42,117.8,51,217.4,69.6,246.6c14.7,23,67.9,77.8,100.8,61.6s26.8-49-2.9-72.8 M1407.3,779.7c-29.7-23.8-43.8-21-53.4-67
		c-5.3-25.4-18.4-119.7-22.6-138.6 M1407.3,779.7c12.8-17.2,61.2-42.1,81-46.1 M1343.5,829.1c-41.1,17.4-104.5,28.1-134.4,38.4
		c-42.7,14.6-124.5,47.1-159.5,90.2c-28.6,35.2,12.5,82,68,45c60-40,93.6-64.1,136.4-72.6c27.6-5.5,108.7-9.5,163.5-10.1"/>
	<path class="st7" d="M1010.5,1640.7c0,0-18-59-67-67c-87-14.2-143-58-143-58c-10,20-8,54,8,83c-15,16-40,54-50,78
		c-27,0-71,14-71,14c120,210,387,252.3,601,193c205.5-57,326-222,376-392c47.9-162.8,23.6-377.8,0-422c-31.6-59.2-82.3-5.1-62,70
		c34,126,58.8,357.4-58,380c-124,24-138-142-176-212c-31.2-57.4-80-78-80-122s-32-142-86-94s-5.8,157.4,48,230
		c58.7,79.1,90,298-120,298"/>
	<path class="st7" d="M928.5,1791.7c25-54.7,97.2-180.5,146-224.5c57.7-117.8,95.4-162.5,113.5-125.9c28,56.5-47.7,139.4-96.5,232.9
		c-24,46-30,75.5-39,131.5 M722.5,1698.7c11,3.3,32.6,14.8,31,34 M758.5,1674.2c4.5-27,6.2-69-25-89s-54-15.5-75-41 M627.5,1467.7
		c4.5-44.5,65.5-75.5,79,0c11,61.5,39,56.1,89,99.5 M1400.5,1385.7c31.5-50,93.7-42.5,115-88c19-40.5,56-79.5,97.5-106.5
		 M1537.5,1518.7c-9-64,20-178.5,89.5-241 M727.5,421.7c13.5-6.5,20.5-15.5,20.5-23.5 M650.5,497.7c8-45,30.5-61,71-54
		C721.5,482.2,695,501.2,650.5,497.7z"/>
	<path class="st7" d="M638.5,359.7c17.5,10.5,39.5,26.5,60.5,47.5 M673,338.7c9.5,24,25.5,46.6,37.5,61 M721.5,393.7
		c-8-9.6-15-27-17-44 M743.5,437.7c8.7,12.3,20.5,31.5,19,58 M737.5,453.7c14.5,33.5,14,55.5,10.5,80 M727.5,477.7
		c-5.5,30-10,60.5,0,106.5 M1183,526.7c-9.5,54-12.5,95.5-7.5,143.5 M1212.5,571.2c-18,32-22.5,52-24.5,87.5 M1200.5,678.2
		c2-31.5,7-48.5,26-75.5 M1175,736.7c-5,29-3.5,76.5,6.5,110 M1155,731.2c-7,19.7-13,54-13,95.5 M1142,728.2
		c-17,18.5-36.5,34.5-61.5,52.5 M1182.5,695.7c5,3.3,17.5,16.3,17.5,35.5 M924.5,1741.7c-35,20-60,45.5-75.5,69 M924.5,1764.7
		c-17,35-27.5,62-67,133.5 M988,1636.2c16.5-14.5,42-46.5,52.5-78.5 M959.5,1686.7c-1.5-11.5,5.5-22.5,16-29 M1153.3,1471.3
		c14-17.5,10.2-37.4,26.2-40.4 M1172.5,1476.4c5.5-13,7-25.3,15.5-35.1 M1212,1173.2c-14.5-25.5-23.5-70-4-86 M1240,1167.7
		c-14-40-15-73.5,5.5-82.5 M921.5,716.7c15,0,38,13.5,43,32 M634,1337.7c14.5,11.5,28.5,31.5,28.5,46.5 M611.5,1351.2
		c10.5,7,28.5,26.5,24,45 M917,737.2c15,0,36,7.5,40.5,29"/>
	<path class="st9" d="M691.5,485.6c9.4-2.2,15.9-11.3,13.7-20.7c-2.2-9.4-12-14.7-21.4-12.6c-9.4,2.2-15.9,11.3-13.7,20.7
		C672.3,482.4,682.1,487.8,691.5,485.6z"/>
	<path class="st9" d="M885.5,1734.4c11.7-2.7,19.6-14,16.9-25.6c-2.7-11.6-14.7-18.3-26.5-15.5c-11.7,2.7-19.6,14-16.9,25.6
		C861.7,1730.5,873.7,1737.2,885.5,1734.4z"/>
	<path class="st9" d="M981.2,1604c1.6-3.9,0.7-7.9-1.3-11.1s-5.3-5.9-9.3-7.6s-8.2-2.1-11.9-1.2c-3.7,0.8-7.2,3-8.8,6.9
		s-0.7,7.9,1.3,11.1s5.3,5.9,9.3,7.6s8.2,2.1,11.9,1.2C976,1610.1,979.5,1607.9,981.2,1604z"/>
	<path class="st7" d="M836.1,1737.3c47,17.9,75.1-7.8,89-45.8C880,1675.6,841.8,1689,836.1,1737.3z"/>
	<path class="st7" d="M952.5,1576.7c-13,15.5-8,37.1,7.6,54.8c12.6-8.2,22.2-18.9,28.1-30.3"/>
	<path class="st9" d="M1149.3,624.8c2.1-11.6-6.1-22.4-17.8-24.5s-23.2,5-25.4,16.5c-2.1,11.6,6.1,22.4,17.8,24.5
		C1135.6,643.5,1147.1,636.4,1149.3,624.8z"/>
	<path class="st7" d="M1131.7,667.7c35.3-35.9,22.8-72-6.3-99.9C1092.7,602.9,1089.6,643.2,1131.7,667.7z"/>
	<path class="st5" d="M848.1,402.8"/>
	<path class="st10" d="M1607.9,1471.8c20-32.2,26-139.3,22-191c-25.5,18-48.5,51-64,87c-12,28-31,111-28,154.5
		C1552.4,1519.3,1582.4,1512.8,1607.9,1471.8z M1407.4,779.8c-8-4.7-25.7-15.5-32.5-21.5c-8.5-7.5-16.5-17.5-22.5-47.5
		c-4.8-24-10.3-73-12.5-94.5c21-3,51,4.1,70.5,15.5c24,14,48,47,80,99.5l-44,20.5L1407.4,779.8z M898,630.8l-47.5,56
		c2.6,0.5,6.8,0.7,12,0.9c13.9,0.7,35.2,1.6,54.5,9.6c52,21.5,52.5,58,46,65c-15.9,17.2-45.5,13-74.5-5c-24.1-14.9-58.5-12.5-77-5
		c-35.3,111.3-67,144.4-109.7,189c-4.4,4.6-9.1,9.5-13.8,14.5c-6.5,6.9-24.8,21.7-47.4,40c-44.4,35.9-105.4,85.2-125.6,114
		c6.9,1.8,14.9,3.5,23.4,5.3c27.4,5.9,59.8,12.8,76.6,26.2c16.9,13.5,18.7,43.8,20.7,77.3c1.3,21.1,2.6,43.4,7.8,63.7
		c1.7,6.8,5.1,15.5,8.8,25.1c12.6,32.6,29.1,75.1-0.3,89.4c-24.9,12.1-58.5-9.5-75-34.5c-1.5,8.1-4.3,17.8-7.2,28
		c-6.4,22.7-13.5,47.5-8.3,61c6.2,16.1,45.5,19,67,19c0-8.5,2.4-27.5,21.5-38.5c34-19.5,47.6,5.7,51,13.5c2,4.6,3.6,11.7,5.4,19.7
		c4.2,18.4,9.5,41.9,23.1,52.3c7,5.4,46.7,35.5,67.5,48.5l-2-26l7.5-23.5c18.2,12.3,58.9,39.4,89.5,47c8.2,2.1,16,3.8,23.2,5.5
		c31.4,7.2,53.9,12.4,72.2,30c10.4,10,21.3,34.2,25.5,45c11.5-14.7,36.9-46.7,46.5-57.5c12-13.5,75.3-138.7,107.8-151.3
		c18-7,28,12,30.3,28c3.5,23.5-21.2,74.1-30,91.5c-5.8,11.6-27.8,46.1-38.3,63.1c26.5-1.5,61.2-0.8,98.7-18.8
		c44.4-21.3,60-65,65.5-101s-8.5-103-15-124s-26.5-50-36-61s-40.5-74-56.5-122s2.5-79.5,11.5-93.5s33.5-18,45-15.5
		c9.3,2,20.4,18.5,27.6,29.1c1.7,2.6,3.2,4.8,4.4,6.4c4.8,6.4,13,35.3,16.5,49c21.2-36.7,63.9-111.7,65.5-118.5
		c1.4-5.9,14.2-36.6,23.5-58.8c4.2-9.9,7.6-18.2,9-21.7c2.5-6.3,12.6-20.7,20.8-32.5c3.8-5.4,7.2-10.3,9.3-13.5h-0.8
		c-58.5,0-146.4,0-197.7,20.5c-26.2,10.5-49.9,26.9-71.5,41.8c-38.1,26.4-69.6,48.2-97,25.2c-44.7-37.4,37.9-83.8,74.2-104.2
		c5-2.8,9-5.1,11.8-6.8c18.8-11.6,145.8-49.5,207-67c-0.5-0.5-1-1-1.6-1.6c-0.5-0.5-1-1-1.6-1.6c-10.6-10.9-29.7-30.4-37.3-48.8
		c-6.8-16.6-20.8-77.6-30.8-121.3c-2.4-10.1-4.4-19.2-6.2-26.7c-6,1.5-19.5,10.5-26.5,25c-2.8,5.7-4.3,13.5-6,22
		c-3.6,18.8-8.1,41.3-28,54c-28.3,18.1-89-19.5-100-27c-6-4-15.9-18.3-24.4-30.4c-3.2-4.6-6.1-8.8-8.6-12.1
		c-6,1.5-13.8,0.5-28.5-1.5c-12.8-1.7-26.2-5.9-38-9.6c-2.1-0.7-4.1-1.3-6-1.9l22.5-46.5l29-38.5c-0.3,0.3-1.5,0-3.5-0.5
		c-5.7-1.6-9.5,4.2-24.2,14.5c-29.9,20.9-33.6,62.3-42.1,74.5c-4,5.7-10.2,12.4-16.1,17.4c-26.9,22.6-39.9-15.5-39.9-15.5
		c-4.7-36.2-8-189.2-9.2-193.6c-2.8-3.1,28.2-97,36.4-115.6c-4.6-24.3-23.6-19.2-55.3,0.4c-19.8,12.2-35.8,131.4-40.9,158.8
		c-4.7,25.2-9.2,49.7-24.8,60c-12.4,8.2-30.4,11.5-46.4,14.4c-6.4,1.2-12.4,2.3-17.6,3.6c-3.3-13.3,1-51,10.5-89
		c12.3-49.1,15.5-72.5-19.5-75.5c-6-15.5-16.5-25.5-21.5-25.5c-12,0-22.2,6.4-34.1,13.8c-9.5,5.9-20,12.5-33.4,17.2
		c-19.6,6.8-26.4,17.8-32.7,28.1c-3.1,5-6,9.8-10.3,13.9c-7,6.7-18.7,13.8-30.8,21.1c-13.1,7.9-26.7,16.1-35.2,24.4l33.5,14.5
		l-33.5,45.5l33.5,6.5l28.5-6.5c-3,41.5-15,117.5-62,198.5c-15.6,26.9-49.1,57.9-85.1,91.1c-47.2,43.8-98.8,91.4-119.8,139.1
		c-30-39-58.9-163.1-52-202c3.8-21.7,12.8-49.2,21.6-76.1c16.3-50.1,32-98,12.4-101.9c-30-6-81,84-88,185
		c-5.9,85.2,18.2,166,38.1,232.6c7,23.3,13.4,44.9,17.9,64.3c35.8,156,84.5,211.5,152,247c24.2,12.7,30.9,50.7,37.2,85.7
		c5,27.8,9.6,53.7,22.3,63.3c63,47.5,106.5,65.5,139,47.5c5.9,7.6,17.8,13.1,33,20.2c16,7.4,35.5,16.5,55.5,31.3
		c24.4,18.2,16.4,59.1,12.3,80.3v0.1c-0.1,0.5-0.2,1-0.3,1.5l-69,13c77.5,130,185.5,174.3,255,196c64,20,235.2,38.4,391.5-17
		c146.3-51.8,251.5-196,281.5-258c25-51.6,65.7-157.7,74-267.5c10.5-138.8-17.8-275.2-34-286.5c-32-22.5-48.5-7-59.5,35.5
		c-5.5,21.2,2.5,49.1,9.1,71.9c2.8,9.8,5.3,18.6,6.4,25.6c-45.6,21.6-87.2,88.5-103.3,114.3c-3.7,5.9-6,9.6-6.7,10.2
		c-12.3,9.6-28.3,18.5-44.4,27.4c-22.6,12.5-45.4,25.2-58.6,40.1c-5.2-11.9-10.5-25.8-15.6-38.8c-5.8-14.8-11.1-28.6-15.4-37.7
		c-7.6-16.2-19.6-28.9-28.5-38.4c-4.4-4.7-8-8.5-10-11.6c6-11.5,11.9-25.5,18.4-40.9c20.3-48.4,46.8-111.4,104.1-158.6
		c51.7-42.5,135.8-99.6,211.9-151.1c77.8-52.7,147.2-99.7,165-119.9c24-27,75-106.9,65.5-205c-8.1-83.6-84.8-186.5-126.5-210
		c-61-34.4-77,15-46,51c2.8,3.2,5.9,6.8,9.2,10.6c33.9,38.4,92.3,104.6,92.3,185.4c0,53-28,93.5-63.5,116c-15.3-88-38-188-141-288
		c-171-166-399.5-58.2-507,44.3c-39.5-12.7-98.6,15-176.7,110.2"/>
	<path class="st7" d="M1114.7,496.2 M1051.7,565.7 M1056.2,630.4c8.4,17.8,33.8,62,52.5,75.9c23.1,17.2,70,41.2,91.9,30.4
		s29.7-21.7,32.4-39.5s7.7-49.4,34.8-66.5 M1242,547.8c42,117.8,51,217.4,69.6,246.6c14.7,23,67.9,77.8,100.8,61.6s26.8-49-2.9-72.8
		 M1409.5,783.2c-29.7-23.8-43.8-21-53.4-67c-5.3-25.4-18.4-119.7-22.6-138.6 M1409.5,783.2c12.8-17.2,61.2-42.1,81-46.1
		 M1345.7,832.6c-41.1,17.4-104.5,28.1-134.4,38.4c-42.7,14.6-124.5,47.1-159.5,90.2c-28.6,35.2,12.5,82,68,45
		c60-40,93.6-64.1,136.4-72.6c27.6-5.5,108.7-9.5,163.5-10.1"/>
</g>
<g id="Layer_2">
</g>
</svg>
