<?xml version="1.0" encoding="UTF-8"?><svg id="a" xmlns="http://www.w3.org/2000/svg" viewBox="0 0 35.14 30.54"><defs><style>.b{fill:#ebf6fb;}</style></defs><path class="b" d="M34.11,.67c-.4-.33-.89-.55-1.41-.64s-1.05-.02-1.54,.17L1.46,11.99c-.43,.18-.8,.48-1.06,.87-.26,.39-.4,.84-.4,1.31s.14,.92,.4,1.31c.26,.39,.63,.69,1.06,.87l1.92,.78c.32,.13,.67,.14,.99,0,.32-.13,.57-.38,.71-.69,.07-.16,.1-.32,.1-.49,0-.17-.03-.34-.1-.49-.07-.16-.16-.3-.28-.42-.12-.12-.26-.21-.42-.28l-1.43-.58L32.14,2.61s.1-.04,.15-.04,.1,.01,.15,.04c.04,.04,.07,.08,.09,.13,.02,.05,.02,.11,.01,.16l-5.33,24.65c-.02,.09-.06,.17-.12,.24-.06,.07-.14,.12-.22,.15-.08,.03-.17,.04-.26,.03-.09-.01-.17-.05-.24-.11l-10.37-8.02,10.15-10.16c.22-.22,.35-.52,.36-.83,.02-.31-.08-.61-.27-.86-.19-.24-.47-.41-.77-.47-.31-.06-.62,0-.9,.15l-14.89,8.74c-.17,.07-.31,.18-.43,.32-.12,.13-.21,.29-.27,.46-.06,.17-.07,.35-.05,.53,.02,.18,.08,.35,.17,.51,.09,.16,.21,.29,.36,.4,.15,.11,.31,.18,.49,.22,.18,.04,.36,.04,.54,0,.18-.04,.35-.11,.49-.22l6.26-3.66-3.05,3.07c-.28,.26-.5,.58-.64,.93s-.2,.73-.18,1.11c.02,.38,.13,.75,.32,1.08,.19,.33,.44,.62,.75,.84l10.37,7.9c.55,.42,1.22,.64,1.91,.64,.37,0,.73-.07,1.08-.19,.5-.18,.94-.48,1.28-.87,.35-.39,.58-.87,.69-1.38L35.07,3.47c.11-.51,.08-1.04-.09-1.53-.17-.49-.47-.93-.87-1.27Z"/></svg>