<?xml version="1.0" encoding="utf-8"?>
<!-- Generator: Adobe Illustrator 26.2.1, SVG Export Plug-In . SVG Version: 6.00 Build 0)  -->
<svg version="1.1" id="Capa_1" xmlns="http://www.w3.org/2000/svg" xmlns:xlink="http://www.w3.org/1999/xlink" x="0px" y="0px"
	 viewBox="0 0 26 26" style="enable-background:new 0 0 26 26;" xml:space="preserve">
<style type="text/css">
	.st0{fill:#FFFFFF;}
</style>
<g>
	<path class="st0" d="M21.1,0H4.9C2.2,0,0,2.2,0,4.9v16.2C0,23.8,2.2,26,4.9,26h16.2c2.7,0,4.9-2.2,4.9-4.9V4.9
		C26,2.2,23.8,0,21.1,0z M18.8,17.4l-1.4,1.4c-0.3,0.3-0.7,0.3-0.9,0L13,15.3l-3.5,3.5c-0.3,0.3-0.7,0.3-0.9,0l-1.4-1.4
		c-0.3-0.3-0.3-0.7,0-0.9l3.5-3.5L7.2,9.5C7,9.3,7,8.9,7.2,8.6l1.4-1.4C8.9,7,9.3,7,9.5,7.2l3.5,3.5l3.5-3.5c0.3-0.3,0.7-0.3,0.9,0
		l1.4,1.4c0.3,0.3,0.3,0.7,0,0.9L15.3,13l3.5,3.5C19,16.7,19,17.1,18.8,17.4z"/>
</g>
</svg>
