<?xml version="1.0" encoding="UTF-8"?><svg id="a" xmlns="http://www.w3.org/2000/svg" viewBox="0 0 157.44 135.24"><defs><style>.b{fill:#fff;}</style></defs><path class="b" d="M33.16,0c10.07,5.09,17.06,12.42,22.42,21.95,14.05-3.84,28.16-4.03,42.39,.05C103.36,12.6,110.35,5.06,120.51,.02c11.05,20.11,9.85,41.05,5.83,61.84,7.63,1.96,15.18,3.77,22.65,5.89,2.35,.67,4.72,1.86,6.61,3.39,1.09,.88,1.26,2.92,1.84,4.43-1.59,.2-3.56,1.11-4.7,.48-8.06-4.44-16.72-6.36-25.76-7.19-3.32-.31-4.98,.81-5.29,3.76,6.4,2.83,12.72,5.32,18.72,8.4,3.05,1.56,5.83,3.94,8.17,6.46,1.09,1.18,.85,3.6,1.21,5.46-1.71-.39-3.96-.23-5.06-1.27-6.86-6.56-15.22-10.05-24.21-12.22-1.54-.37-3.35,.39-5.04,.63l-.08,1.54c1.96,1.1,3.92,2.21,5.88,3.31,6.64,3.74,12.51,8.37,15.83,15.41,.62,1.32-.37,3.4-.62,5.14-1.53-.8-3.75-1.21-4.47-2.48-4.45-7.86-11.61-12.23-19.49-15.63-1.18-.51-3.27-.08-4.43,.68-20.13,13.29-40.4,13.52-61.02,1.17-1.22-.73-3.78-.85-4.79-.07-5.6,4.35-10.98,9.01-16.29,13.71-1.66,1.47-2.86,4.63-5.37,2.22-.89-.86-.45-4.63,.69-5.82,5.58-5.81,11.6-11.19,17.75-16.99-1.04-3.01-3.72-3.87-7.06-2.01-6.34,3.54-12.59,7.23-18.75,11.07-1.91,1.2-3.63,4.01-5.66,1.21-.72-1,.35-4.63,1.67-5.56,7.25-5.12,14.83-9.77,22.83-14.93-.3-2.86-2.95-3.78-6.51-2.7-6.8,2.06-13.52,4.42-20.34,6.42-1.62,.47-3.51,0-5.28-.03,.79-1.7,1.16-4.4,2.44-4.94,6.08-2.57,12.39-4.64,18.67-6.72,2.01-.67,4.2-.83,6.47-1.25-4.4-21.56-5.57-42.59,5.59-62.84Z"/><path class="b" d="M55.9,132.51c-3.84,2.94-7.59,3.67-11.75,1.16-.84-.5-2.45-.28-3.46,.16-6.1,2.66-11.34,.84-13.67-5.36-.96-2.55-1.48-5.57-1.14-8.24,1.26-9.96,12.45-19.37,22.82-19.63,10.17-.25,21.66,8.44,23.64,18.08,.43,2.07,.41,4.33,.13,6.44-.95,7.33-8.37,13.87-16.58,7.39Z"/><path class="b" d="M112.07,132.58c-4.4,3.45-8.81,3.68-13.07-.1-4.18,2.99-8.29,4.04-12.48,.57-4.29-3.55-5.76-10.72-3.46-16.52,3.67-9.28,13.4-16.09,22.77-15.94,9.21,.15,18.92,6.97,22.1,16.08,.94,2.69,1.13,5.93,.66,8.76-1.46,8.92-8.23,11.91-16.52,7.14Z"/></svg>